<?xml version="1.0" standalone="no"?>
<!DOCTYPE svg PUBLIC "-//W3C//DTD SVG 20010904//EN"
 "http://www.w3.org/TR/2001/REC-SVG-20010904/DTD/svg10.dtd">
<svg version="1.0" xmlns="http://www.w3.org/2000/svg"
 width="1280.000000pt" height="1280.000000pt" viewBox="0 0 1280.000000 1280.000000"
 preserveAspectRatio="xMidYMid meet">
<metadata>
Created by potrace 1.15, written by Peter Selinger 2001-2017
</metadata>
<g transform="translate(0.000000,1280.000000) scale(0.100000,-0.100000)"
fill="#000000" stroke="none">
<path d="M7315 8305 c-351 -52 -670 -197 -888 -404 -150 -142 -246 -294 -287
-455 -42 -166 -37 -290 21 -472 44 -139 90 -191 136 -152 13 10 15 27 9 100
-3 48 -11 109 -16 135 -6 26 -15 95 -20 152 -21 231 38 403 195 569 113 121
226 192 395 248 84 29 87 29 332 29 179 0 250 -3 259 -12 9 -9 1 -43 -36 -150
-95 -276 -345 -879 -411 -990 -17 -29 -34 -45 -52 -49 -15 -3 -37 -7 -50 -10
-13 -3 -80 1 -148 7 -140 14 -211 4 -251 -33 -29 -27 -31 -73 -4 -88 11 -5 84
-10 163 -10 146 -1 222 -10 240 -28 15 -15 -24 -137 -82 -251 -96 -192 -251
-373 -411 -481 -111 -74 -198 -104 -304 -104 -128 0 -278 55 -263 96 4 8 30
29 60 45 117 67 160 154 120 245 -37 84 -138 158 -217 158 -121 0 -235 -136
-235 -281 0 -97 23 -154 91 -222 116 -116 274 -163 518 -154 181 6 265 27 416
101 262 130 422 307 641 710 32 60 70 116 83 125 21 13 54 16 186 16 88 0 196
-3 241 -5 64 -3 86 -1 106 12 32 21 43 61 26 96 -20 42 -63 47 -246 32 -145
-12 -225 -10 -240 5 -3 3 -1 26 6 50 24 89 366 947 418 1046 7 15 23 30 33 34
20 6 206 -47 509 -146 121 -40 159 -57 179 -80 15 -16 35 -29 45 -29 22 0 71
66 138 187 73 130 68 139 -97 183 -59 15 -192 56 -294 89 -229 75 -385 116
-515 136 -121 18 -374 18 -499 0z"/>
</g>
</svg>
